%FSTAX23Y23*%
%MOIN*%
%SFA1B1*%

%IPPOS*%
%ADD10R,0.205000X0.063000*%
%ADD11R,0.093000X0.059000*%
%ADD12R,0.034000X0.014000*%
%ADD13R,0.014000X0.034000*%
%ADD14R,0.232000X0.038000*%
%ADD15R,0.062992X0.030000*%
%ADD16R,0.050000X0.015000*%
%ADD17R,0.033000X0.020000*%
%ADD18R,0.020000X0.030000*%
%ADD19R,0.100000X0.050000*%
%ADD20R,0.118000X0.050000*%
%ADD21R,0.050000X0.118000*%
%LNpcb1-1*%
%LPD*%
G54D10*
X06646Y02947D03*
Y02632D03*
X05049Y02631D03*
Y02947D03*
Y03181D03*
Y03497D03*
X06646Y03497D03*
Y03182D03*
X04675Y02956D03*
Y02641D03*
X03328Y0264D03*
Y02956D03*
Y0319D03*
Y03506D03*
X04675Y03506D03*
Y03191D03*
G54D11*
X06696Y0279D03*
X04999Y02789D03*
Y03339D03*
X06696Y0334D03*
X04725Y02799D03*
X03278Y02798D03*
Y03348D03*
X04725Y03349D03*
G54D12*
X06176Y03044D03*
Y03107D03*
X0531Y03276D03*
Y03338D03*
X05311Y02851D03*
Y02789D03*
X05549Y03276D03*
Y03338D03*
X05549Y02851D03*
Y02789D03*
X03828Y03285D03*
Y03347D03*
X03588Y0286D03*
Y02798D03*
X04312Y03047D03*
Y0311D03*
X03589Y03285D03*
Y03347D03*
X03828Y0286D03*
Y02798D03*
G54D13*
X06297Y02789D03*
X06359D03*
X06297Y03338D03*
X06359D03*
X04451Y03347D03*
X04513D03*
X04451Y02798D03*
X04513D03*
G54D14*
X05479Y03641D03*
Y03889D03*
X06215Y03641D03*
Y03889D03*
X04369Y03697D03*
Y03945D03*
X03633Y03697D03*
Y03945D03*
G54D15*
X05315Y03687D03*
Y03827D03*
X06389Y03687D03*
Y03827D03*
X04543Y03743D03*
Y03883D03*
X03469Y03743D03*
Y03883D03*
G54D16*
X05309Y03164D03*
Y03249D03*
X0531Y02961D03*
Y02876D03*
X0555Y03164D03*
Y03249D03*
X05549Y02961D03*
Y02876D03*
X03829Y03173D03*
Y03258D03*
X03828Y0297D03*
Y02885D03*
X03588Y03173D03*
Y03258D03*
X03589Y0297D03*
Y02885D03*
G54D17*
X06233Y02898D03*
X06113Y03228D03*
X0427Y03237D03*
X04336Y02906D03*
G54D18*
X06173Y02788D03*
X06173Y03338D03*
X0433Y03347D03*
X04276Y02796D03*
G54D19*
X03293Y0357D03*
X03296Y02571D03*
X04705Y0257D03*
X04702Y0357D03*
G54D20*
X03514Y02571D03*
X0375Y02571D03*
X03986Y02571D03*
X04222D03*
X04458D03*
X03514Y0357D03*
X0375D03*
X03986D03*
X04222D03*
X04458D03*
G54D21*
X03248Y03085D03*
X04749D03*
M02*